# xmcd CD database file
#
# Track frame offsets:
#	150
#	14120
#	28512
#	44014
#	60227
#	72857
#	87662
#	100790
#	113885
#	125120
#	138970
#	154890
#	168795
#	182157
#	195220
#	208090
#	222020
#	235302
#	248812
#	262900
#
# Disc length: 3684 seconds
#
# Revision: 0
# Processed by: cddbd v1.5PL3 Copyright (c) Steve Scherf et al.
# Submitted via: CDex 1.50
#
DISCID=1b0e6214
DTITLE=Leroy Carr and Scrapper Blackweel - How Long Blues
DYEAR=1900
DGENRE=Blues
TTITLE0=How Long How Long Blues
TTITLE1=I'm Going Away and Leave My Baby
TTITLE2=There Ain't Nobody Got it Like She Got It
TTITLE3=Bee-Da-Da-Bum
TTITLE4=Naptown Blues
TTITLE5=Gattin' All Wet
TTITLE6=Papa's On The House Top
TTITLE7=Alabama Woman Blues
TTITLE8=Papa Wants To Knock A Jug
TTITLE9=Mean Mistreater Mama
TTITLE10=Blues Before Sunrise
TTITLE11=Take A Walk Around The Corner
TTITLE12=I Believe I'll Make A Change
TTITLE13=Barrelhouse Woman
TTITLE14=Longing For My Sugar
TTITLE15=Big Four Blues
TTITLE16=It's Too Short
TTITLE17=When The Sun Goes Down
TTITLE18=Ain't It A Shame
TTITLE19=My Old Pal
EXTD=
EXTT0=
EXTT1=
EXTT2=
EXTT3=
EXTT4=
EXTT5=
EXTT6=
EXTT7=
EXTT8=
EXTT9=
EXTT10=
EXTT11=
EXTT12=
EXTT13=
EXTT14=
EXTT15=
EXTT16=
EXTT17=
EXTT18=
EXTT19=
PLAYORDER=
